<svg data-v-dcc84960="" version="1.0" xmlns="http://www.w3.org/2000/svg" xmlns:xlink="http://www.w3.org/1999/xlink"
        width="100%" height="100%" viewBox="0 0 340.000000 250.000000" preserveAspectRatio="xMidYMid meet"
        color-interpolation-filters="sRGB" class="el-tooltip" style="margin: auto;">
        <rect data-v-dcc84960="" x="0" y="0" width="100%" height="100%" fill="#fff" fill-opacity="1"></rect>
        <rect data-v-dcc84960="" x="0" y="0" width="100%" height="100%" fill="#fff" fill-opacity="1"
            class="watermarklayer"></rect>
        <g data-v-dcc84960="" fill="#333" class="newinitialsvg-g newinitialsvg"
            transform="translate(111.486328125,95.607421875)">
            <g class="tp-name" transform="translate(0,0)">
                <g transform="translate(0, 0)">
                    <g fill="#333" transform="translate(0,3)">
                        <path
                            d="M10.35 0L7.18 0L7.18 0Q6.01 0 5.15-0.85L5.15-0.85L5.15-0.85Q4.30-1.71 4.30-2.88L4.30-2.88L4.30-34.33L4.30-34.33Q4.30-35.50 5.15-36.35L5.15-36.35L5.15-36.35Q6.01-37.21 7.18-37.21L7.18-37.21L10.35-37.21L10.35-37.21Q11.57-37.21 12.40-36.35L12.40-36.35L12.40-36.35Q13.23-35.50 13.23-34.33L13.23-34.33L13.23-23.44L13.23-23.44Q13.23-23.05 13.62-23.05L13.62-23.05L25.15-23.05L25.15-23.05Q25.49-23.05 25.49-23.44L25.49-23.44L25.49-34.33L25.49-34.33Q25.49-35.50 26.34-36.35L26.34-36.35L26.34-36.35Q27.20-37.21 28.37-37.21L28.37-37.21L31.45-37.21L31.45-37.21Q32.67-37.21 33.50-36.35L33.50-36.35L33.50-36.35Q34.33-35.50 34.33-34.33L34.33-34.33L34.33-2.88L34.33-2.88Q34.33-1.71 33.50-0.85L33.50-0.85L33.50-0.85Q32.67 0 31.45 0L31.45 0L28.37 0L28.37 0Q27.20 0 26.34-0.85L26.34-0.85L26.34-0.85Q25.49-1.71 25.49-2.88L25.49-2.88L25.49-14.94L25.49-14.94Q25.49-15.28 25.15-15.28L25.15-15.28L13.62-15.28L13.62-15.28Q13.23-15.28 13.23-14.94L13.23-14.94L13.23-2.88L13.23-2.88Q13.23-1.71 12.40-0.85L12.40-0.85L12.40-0.85Q11.57 0 10.35 0L10.35 0Z"
                            transform="translate(-4.296875, 37.20703125)"></path>
                    </g>
                </g>
                <g transform="translate(34.029296875, 0)">
                    <g fill="#333" transform="translate(0,3)">
                        <path
                            d="M18.36 0L7.18 0L7.18 0Q6.01 0 5.15-0.85L5.15-0.85L5.15-0.85Q4.30-1.71 4.30-2.88L4.30-2.88L4.30-34.33L4.30-34.33Q4.30-35.50 5.15-36.35L5.15-36.35L5.15-36.35Q6.01-37.21 7.18-37.21L7.18-37.21L17.29-37.21L17.29-37.21Q31.15-37.21 31.15-27.98L31.15-27.98L31.15-27.98Q31.15-25.44 29.83-23.14L29.83-23.14L29.83-23.14Q28.52-20.85 26.42-19.97L26.42-19.97L26.42-19.97Q26.32-19.97 26.32-19.85L26.32-19.85L26.32-19.85Q26.32-19.73 26.42-19.73L26.42-19.73L26.42-19.73Q29.35-18.90 31.13-16.70L31.13-16.70L31.13-16.70Q32.91-14.50 32.91-10.99L32.91-10.99L32.91-10.99Q32.91-7.32 30.93-4.79L30.93-4.79L30.93-4.79Q28.96-2.25 25.73-1.12L25.73-1.12L25.73-1.12Q22.51 0 18.36 0L18.36 0ZM13.23-30.03L13.23-22.80L13.23-22.80Q13.23-22.46 13.62-22.46L13.62-22.46L16.94-22.46L16.94-22.46Q19.73-22.46 21.09-23.56L21.09-23.56L21.09-23.56Q22.46-24.66 22.46-26.66L22.46-26.66L22.46-26.66Q22.46-28.61 21.12-29.52L21.12-29.52L21.12-29.52Q19.78-30.42 16.94-30.42L16.94-30.42L13.62-30.42L13.62-30.42Q13.23-30.42 13.23-30.03L13.23-30.03ZM13.23-15.48L13.23-7.23L13.23-7.23Q13.23-6.84 13.62-6.84L13.62-6.84L17.68-6.84L17.68-6.84Q24.22-6.84 24.22-11.62L24.22-11.62L24.22-11.62Q24.22-13.87 22.63-14.87L22.63-14.87L22.63-14.87Q21.04-15.87 17.68-15.87L17.68-15.87L13.62-15.87L13.62-15.87Q13.23-15.87 13.23-15.48L13.23-15.48Z"
                            transform="translate(-4.296875, 37.20703125)"></path>
                    </g>
                </g>
                <g transform="translate(66.642578125, 0)" mask="url(#40c409c4f0cae7db94064d97fe0a3fea)">
                    <rect fill="#333" x="0" y="0" width="50.384765625" height="43.20703125"></rect>
                    <g fill="#fff" transform="translate(2.9973831176757812,3)">
                        <path
                            d="M15.67 0L10.40 0L10.40 0Q9.13 0 8.18-0.81L8.18-0.81L8.18-0.81Q7.23-1.61 6.98-2.83L6.98-2.83L1.22-34.38L1.22-34.38Q1.17-34.62 1.17-34.86L1.17-34.86L1.17-34.86Q1.17-35.64 1.76-36.33L1.76-36.33L1.76-36.33Q2.44-37.21 3.56-37.21L3.56-37.21L6.98-37.21L6.98-37.21Q8.20-37.21 9.13-36.40L9.13-36.40L9.13-36.40Q10.06-35.60 10.25-34.33L10.25-34.33L12.21-20.26L13.67-8.54L13.67-8.54Q13.72-8.45 13.82-8.45L13.82-8.45L13.82-8.45Q13.92-8.45 13.92-8.54L13.92-8.54L13.92-8.54Q14.89-14.11 16.11-20.26L16.11-20.26L19.29-34.38L19.29-34.38Q19.53-35.60 20.53-36.40L20.53-36.40L20.53-36.40Q21.53-37.21 22.80-37.21L22.80-37.21L24.51-37.21L24.51-37.21Q25.78-37.21 26.78-36.43L26.78-36.43L26.78-36.43Q27.78-35.64 28.03-34.38L28.03-34.38L31.30-20.26L31.30-20.26Q31.74-18.12 32.45-14.09L32.45-14.09L32.45-14.09Q33.15-10.06 33.45-8.59L33.45-8.59L33.45-8.59Q33.45-8.45 33.57-8.45L33.57-8.45L33.57-8.45Q33.69-8.45 33.69-8.59L33.69-8.59L33.69-8.59Q33.98-10.84 34.47-14.87L34.47-14.87L34.47-14.87Q34.96-18.90 35.11-20.26L35.11-20.26L37.11-34.33L37.11-34.33Q37.26-35.60 38.21-36.40L38.21-36.40L38.21-36.40Q39.16-37.21 40.38-37.21L40.38-37.21L43.12-37.21L43.12-37.21Q44.24-37.21 44.97-36.33L44.97-36.33L44.97-36.33Q45.56-35.64 45.56-34.81L45.56-34.81L45.56-34.81Q45.56-34.62 45.51-34.38L45.51-34.38L40.04-2.83L40.04-2.83Q39.84-1.61 38.89-0.81L38.89-0.81L38.89-0.81Q37.94 0 36.67 0L36.67 0L31.20 0L31.20 0Q29.93 0 28.96-0.81L28.96-0.81L28.96-0.81Q27.98-1.61 27.73-2.83L27.73-2.83L24.95-16.21L24.95-16.21Q24.07-20.46 23.54-24.71L23.54-24.71L23.54-24.71Q23.49-24.85 23.36-24.85L23.36-24.85L23.36-24.85Q23.24-24.85 23.24-24.71L23.24-24.71L23.24-24.71Q22.17-18.12 21.78-16.21L21.78-16.21L19.14-2.83L19.14-2.83Q18.85-1.61 17.90-0.81L17.90-0.81L17.90-0.81Q16.94 0 15.67 0L15.67 0Z"
                            transform="translate(-1.171875, 37.20703125)"></path>
                    </g>
                </g>
            </g>
            <g class="tp-slogan" fill="#333" transform="translate(0,50.20703125)">
                <!---->
                <rect x="0" height="1" y="3.7899999618530273" width="42.107107162475586"></rect>
                <rect height="1" y="3.7899999618530273" width="42.107107162475586" x="74.9171085357666"></rect>
                <g transform="translate(45.107107162475586,0)">
                    <path
                        d="M2.06-5.06L6.56-5.06L6.56-8.58L7.73-8.58L7.73 0L6.56 0L6.56-3.98L2.06-3.98L2.06 0L0.89 0L0.89-8.58L2.06-8.58L2.06-5.06ZM12.75-7.64L10.69-7.64L10.69-4.97L12.75-4.97L12.75-4.97Q14.58-4.92 14.53-6.38L14.53-6.38L14.53-6.38Q14.53-7.64 12.75-7.64L12.75-7.64ZM13.22 0L9.52 0L9.52-8.58L13.31-8.58L13.31-8.58Q15.61-8.48 15.70-6.42L15.70-6.42L15.70-6.42Q15.70-5.16 14.58-4.64L14.58-4.64L14.58-4.64Q16.17-4.08 16.17-2.53L16.17-2.53L16.17-2.53Q16.03-0.09 13.22 0L13.22 0ZM12.94-3.98L10.69-3.98L10.69-0.98L13.17-0.98L13.17-0.98Q14.95-1.03 15-2.53L15-2.53L15-2.53Q15-3.98 12.94-3.98L12.94-3.98ZM22.27-7.13L22.22-7.13L20.25 0L19.03 0L16.78-8.58L18-8.58L19.64-1.59L19.69-1.59L21.61-8.58L22.88-8.58L24.80-1.59L24.84-1.59L26.44-8.58L27.70-8.58L25.45 0L24.23 0L22.27-7.13Z"
                        transform="translate(-0.890625, 8.578125)"></path>
                </g>
            </g>
        </g>
        <mask id="40c409c4f0cae7db94064d97fe0a3fea">
            <rect x="0" y="0" width="50.384765625" height="43.20703125" fill="white"></rect>
            <g transform="translate(2.9973831176757812,3)" fill="black">
                <path
                    d="M15.67 0L10.40 0L10.40 0Q9.13 0 8.18-0.81L8.18-0.81L8.18-0.81Q7.23-1.61 6.98-2.83L6.98-2.83L1.22-34.38L1.22-34.38Q1.17-34.62 1.17-34.86L1.17-34.86L1.17-34.86Q1.17-35.64 1.76-36.33L1.76-36.33L1.76-36.33Q2.44-37.21 3.56-37.21L3.56-37.21L6.98-37.21L6.98-37.21Q8.20-37.21 9.13-36.40L9.13-36.40L9.13-36.40Q10.06-35.60 10.25-34.33L10.25-34.33L12.21-20.26L13.67-8.54L13.67-8.54Q13.72-8.45 13.82-8.45L13.82-8.45L13.82-8.45Q13.92-8.45 13.92-8.54L13.92-8.54L13.92-8.54Q14.89-14.11 16.11-20.26L16.11-20.26L19.29-34.38L19.29-34.38Q19.53-35.60 20.53-36.40L20.53-36.40L20.53-36.40Q21.53-37.21 22.80-37.21L22.80-37.21L24.51-37.21L24.51-37.21Q25.78-37.21 26.78-36.43L26.78-36.43L26.78-36.43Q27.78-35.64 28.03-34.38L28.03-34.38L31.30-20.26L31.30-20.26Q31.74-18.12 32.45-14.09L32.45-14.09L32.45-14.09Q33.15-10.06 33.45-8.59L33.45-8.59L33.45-8.59Q33.45-8.45 33.57-8.45L33.57-8.45L33.57-8.45Q33.69-8.45 33.69-8.59L33.69-8.59L33.69-8.59Q33.98-10.84 34.47-14.87L34.47-14.87L34.47-14.87Q34.96-18.90 35.11-20.26L35.11-20.26L37.11-34.33L37.11-34.33Q37.26-35.60 38.21-36.40L38.21-36.40L38.21-36.40Q39.16-37.21 40.38-37.21L40.38-37.21L43.12-37.21L43.12-37.21Q44.24-37.21 44.97-36.33L44.97-36.33L44.97-36.33Q45.56-35.64 45.56-34.81L45.56-34.81L45.56-34.81Q45.56-34.62 45.51-34.38L45.51-34.38L40.04-2.83L40.04-2.83Q39.84-1.61 38.89-0.81L38.89-0.81L38.89-0.81Q37.94 0 36.67 0L36.67 0L31.20 0L31.20 0Q29.93 0 28.96-0.81L28.96-0.81L28.96-0.81Q27.98-1.61 27.73-2.83L27.73-2.83L24.95-16.21L24.95-16.21Q24.07-20.46 23.54-24.71L23.54-24.71L23.54-24.71Q23.49-24.85 23.36-24.85L23.36-24.85L23.36-24.85Q23.24-24.85 23.24-24.71L23.24-24.71L23.24-24.71Q22.17-18.12 21.78-16.21L21.78-16.21L19.14-2.83L19.14-2.83Q18.85-1.61 17.90-0.81L17.90-0.81L17.90-0.81Q16.94 0 15.67 0L15.67 0Z"
                    transform="translate(-1.171875, 37.20703125)"></path>
            </g>
        </mask>
    </svg>